<svg xmlns="http://www.w3.org/2000/svg" xmlns:xlink="http://www.w3.org/1999/xlink" width="40" height="40" viewBox="0 0 40 40">
  <defs>
    <clipPath id="clip-path">
      <rect id="Rectangle_35" data-name="Rectangle 35" width="40" height="40"/>
    </clipPath>
  </defs>
  <g id="a" clip-path="url(#clip-path)">
    <g id="Rectangle_34" data-name="Rectangle 34" transform="translate(10 24)" fill="none" stroke="#324bde" stroke-width="2">
      <rect width="20" height="9" rx="3" stroke="none"/>
      <rect x="1" y="1" width="18" height="7" rx="2" fill="none"/>
    </g>
    <g id="Group_20" data-name="Group 20" transform="translate(-1)">
      <line id="Line_7" data-name="Line 7" y2="6" transform="translate(16 33)" fill="none" stroke="#334bde" stroke-linecap="round" stroke-width="2"/>
      <line id="Line_8" data-name="Line 8" y2="6" transform="translate(26 33)" fill="none" stroke="#334bde" stroke-linecap="round" stroke-width="2"/>
    </g>
    <line id="Line_9" data-name="Line 9" y2="7" transform="translate(20.5 17)" fill="none" stroke="#334bde" stroke-linecap="round" stroke-width="2"/>
    <g id="Group_21" data-name="Group 21" transform="translate(14)">
      <path id="Path_8" data-name="Path 8" d="M3,0h7a3,3,0,0,1,3,3l1.241,12.043C14.241,16.7,13.082,17,11.425,17h-9.8c-1.657,0-2.86.194-2.86-1.463L0,3A3,3,0,0,1,3,0Z" fill="none"/>
      <path id="Path_9" data-name="Path 9" d="M3,2A1,1,0,0,0,2,3v.1l-.01.1L.83,15.007l.3,0c.16,0,.326,0,.5,0h9.8a5.835,5.835,0,0,0,.8-.043L11.011,3.2,11,3.1V3a1,1,0,0,0-1-1H3M3,0h7a3,3,0,0,1,3,3l1.241,12.043C14.241,16.7,13.082,17,11.425,17h-9.8c-.314,0-.612.007-.889.007-1.181,0-1.971-.127-1.971-1.47L0,3A3,3,0,0,1,3,0Z" fill="#334bde"/>
    </g>
    <line id="Line_10" data-name="Line 10" y2="2.5" transform="translate(23.5 16.5)" fill="none" stroke="#334bde" stroke-linecap="round" stroke-width="2"/>
  </g>
</svg>
