<svg xmlns="http://www.w3.org/2000/svg" xmlns:xlink="http://www.w3.org/1999/xlink" width="40" height="40" viewBox="0 0 40 40">
  <defs>
    <clipPath id="clip-path">
      <rect id="Rectangle_53" data-name="Rectangle 53" width="40" height="40"/>
    </clipPath>
  </defs>
  <g id="a" clip-path="url(#clip-path)">
    <g id="Group_31" data-name="Group 31" transform="translate(7)">
      <g id="Group_29" data-name="Group 29" transform="translate(5)">
        <path id="Path_19" data-name="Path 19" d="M0,0H17a4,4,0,0,1,4,4V36a4,4,0,0,1-4,4H0Z" fill="none"/>
        <path id="Path_20" data-name="Path 20" d="M2,1H17a3,3,0,0,1,3,3V36a3,3,0,0,1-3,3H2a1,1,0,0,1-1-1V2A1,1,0,0,1,2,1Z" fill="none" stroke="#334bde" stroke-width="2"/>
      </g>
      <g id="Group_30" data-name="Group 30">
        <path id="Path_21" data-name="Path 21" d="M4,0H7V40H4a4,4,0,0,1-4-4V4A4,4,0,0,1,4,0Z" fill="none"/>
        <path id="Path_22" data-name="Path 22" d="M4,1H5A1,1,0,0,1,6,2V38a1,1,0,0,1-1,1H4a3,3,0,0,1-3-3V4A3,3,0,0,1,4,1Z" fill="none" stroke="#334bde" stroke-width="2"/>
      </g>
    </g>
    <line id="Line_23" data-name="Line 23" y2="7" transform="translate(27 16.5)" fill="none" stroke="#334bde" stroke-linecap="round" stroke-width="2"/>
  </g>
</svg>
