<svg xmlns="http://www.w3.org/2000/svg" xmlns:xlink="http://www.w3.org/1999/xlink" width="40" height="40" viewBox="0 0 40 40">
  <defs>
    <clipPath id="clip-path">
      <rect id="Rectangle_60" data-name="Rectangle 60" width="40" height="40"/>
    </clipPath>
  </defs>
  <g id="a" clip-path="url(#clip-path)">
    <g id="Group_36" data-name="Group 36" transform="translate(0 -1)">
      <g id="Group_34" data-name="Group 34" transform="translate(0 15)">
        <path id="Path_26" data-name="Path 26" d="M0,0H40V22a4,4,0,0,1-4,4H4a4,4,0,0,1-4-4Z" fill="none"/>
        <path id="Path_27" data-name="Path 27" d="M2,1H38a1,1,0,0,1,1,1V22a3,3,0,0,1-3,3H4a3,3,0,0,1-3-3V2A1,1,0,0,1,2,1Z" fill="none" stroke="#fff" stroke-width="2"/>
      </g>
      <g id="Group_35" data-name="Group 35" transform="translate(0 6)">
        <path id="Path_28" data-name="Path 28" d="M4,0H36a4,4,0,0,1,4,4v7H0V4A4,4,0,0,1,4,0Z" fill="none"/>
        <path id="Path_29" data-name="Path 29" d="M4,1H36a3,3,0,0,1,3,3V9a1,1,0,0,1-1,1H2A1,1,0,0,1,1,9V4A3,3,0,0,1,4,1Z" fill="none" stroke="#fff" stroke-width="2"/>
      </g>
    </g>
    <rect id="Rectangle_56" data-name="Rectangle 56" width="5" height="8" rx="2" transform="translate(8 2)" fill="#fff"/>
    <rect id="Rectangle_57" data-name="Rectangle 57" width="5" height="8" rx="2" transform="translate(28 2)" fill="#fff"/>
    <g id="Rectangle_58" data-name="Rectangle 58" transform="translate(7 19)" fill="none" stroke="#fff" stroke-width="2">
      <rect width="11" height="14" rx="2" stroke="none"/>
      <rect x="1" y="1" width="9" height="12" rx="1" fill="none"/>
    </g>
    <g id="Rectangle_59" data-name="Rectangle 59" transform="translate(22 19)" fill="none" stroke="#fff" stroke-width="2">
      <rect width="11" height="14" rx="2" stroke="none"/>
      <rect x="1" y="1" width="9" height="12" rx="1" fill="none"/>
    </g>
  </g>
</svg>
