<svg xmlns="http://www.w3.org/2000/svg" xmlns:xlink="http://www.w3.org/1999/xlink" width="40" height="40" viewBox="0 0 40 40">
  <defs>
    <clipPath id="clip-path">
      <rect id="Rectangle_52" data-name="Rectangle 52" width="40" height="40"/>
    </clipPath>
  </defs>
  <g id="a" clip-path="url(#clip-path)">
    <g id="Group_26" data-name="Group 26" transform="translate(0 6)">
      <path id="Path_17" data-name="Path 17" d="M2,0H38a2,2,0,0,1,2,2V13H0V2A2,2,0,0,1,2,0Z" fill="none"/>
      <rect id="Rectangle_48" data-name="Rectangle 48" width="38" height="11" rx="1" transform="translate(1 1)" fill="none" stroke="#334bde" stroke-width="2"/>
    </g>
    <g id="Group_27" data-name="Group 27" transform="translate(0 17)">
      <path id="Path_18" data-name="Path 18" d="M0,0H40V4a2,2,0,0,1-2,2H2A2,2,0,0,1,0,4Z" fill="none"/>
      <rect id="Rectangle_49" data-name="Rectangle 49" width="38" height="4" rx="1" transform="translate(1 1)" fill="none" stroke="#334bde" stroke-width="2"/>
    </g>
    <g id="Group_28" data-name="Group 28" transform="translate(16 12)">
      <rect id="Rectangle_50" data-name="Rectangle 50" width="8" height="2" fill="none"/>
      <rect id="Rectangle_51" data-name="Rectangle 51" width="6" transform="translate(1 1)" fill="none" stroke="#334bde" stroke-width="2"/>
    </g>
    <line id="Line_20" data-name="Line 20" y2="9" transform="translate(10 25)" fill="none" stroke="#334bde" stroke-linecap="round" stroke-width="2"/>
    <line id="Line_21" data-name="Line 21" y2="11.5" transform="translate(20.5 25)" fill="none" stroke="#334bde" stroke-linecap="round" stroke-width="2"/>
    <line id="Line_22" data-name="Line 22" y2="9" transform="translate(30 25)" fill="none" stroke="#334bde" stroke-linecap="round" stroke-width="2"/>
  </g>
</svg>
