<svg xmlns="http://www.w3.org/2000/svg" xmlns:xlink="http://www.w3.org/1999/xlink" width="40" height="40" viewBox="0 0 40 40">
  <defs>
    <clipPath id="clip-path">
      <rect id="Rectangle_39" data-name="Rectangle 39" width="40" height="40"/>
    </clipPath>
  </defs>
  <g id="a" clip-path="url(#clip-path)">
    <g id="Group_22" data-name="Group 22" transform="translate(8 1)">
      <path id="Path_10" data-name="Path 10" d="M8,0h9a8,8,0,0,1,8,8V21H0V8A8,8,0,0,1,8,0Z" fill="none"/>
      <path id="Path_11" data-name="Path 11" d="M8,1h9a7,7,0,0,1,7,7V19a1,1,0,0,1-1,1H2a1,1,0,0,1-1-1V8A7,7,0,0,1,8,1Z" fill="none" stroke="#324bde" stroke-width="2"/>
    </g>
    <g id="Rectangle_36" data-name="Rectangle 36" transform="translate(0 20)" fill="none" stroke="#324bde" stroke-width="2">
      <rect width="40" height="12" rx="3" stroke="none"/>
      <rect x="1" y="1" width="38" height="10" rx="2" fill="none"/>
    </g>
    <line id="Line_11" data-name="Line 11" y2="6" transform="translate(5 32)" fill="none" stroke="#334bde" stroke-linecap="round" stroke-width="2"/>
    <line id="Line_12" data-name="Line 12" y2="6" transform="translate(35 32)" fill="none" stroke="#334bde" stroke-linecap="round" stroke-width="2"/>
    <line id="Line_13" data-name="Line 13" x1="29" transform="translate(6 35)" fill="none" stroke="#334bde" stroke-linecap="round" stroke-width="2"/>
    <g id="Group_23" data-name="Group 23" transform="translate(12 14)">
      <path id="Path_12" data-name="Path 12" d="M2,0H6A2,2,0,0,1,8,2V7H0V2A2,2,0,0,1,2,0Z" fill="none"/>
      <rect id="Rectangle_37" data-name="Rectangle 37" width="6" height="5" rx="1" transform="translate(1 1)" fill="none" stroke="#334bde" stroke-width="2"/>
    </g>
    <g id="Group_24" data-name="Group 24" transform="translate(21 14)">
      <path id="Path_13" data-name="Path 13" d="M2,0H6A2,2,0,0,1,8,2V7H0V2A2,2,0,0,1,2,0Z" fill="none"/>
      <rect id="Rectangle_38" data-name="Rectangle 38" width="6" height="5" rx="1" transform="translate(1 1)" fill="none" stroke="#334bde" stroke-width="2"/>
    </g>
  </g>
</svg>
