<svg xmlns="http://www.w3.org/2000/svg" xmlns:xlink="http://www.w3.org/1999/xlink" width="40" height="40" viewBox="0 0 40 40">
  <defs>
    <clipPath id="clip-path">
      <rect id="Rectangle_47" data-name="Rectangle 47" width="40" height="40"/>
    </clipPath>
  </defs>
  <g id="a" clip-path="url(#clip-path)">
    <g id="Group_25" data-name="Group 25" transform="translate(0 18)">
      <path id="Path_15" data-name="Path 15" d="M3,0H37c1.657,0,3,.93,3,2.077V6.923C40,8.07,38.657,9,37,9H3C1.343,9,0,8.07,0,6.923V2.077C0,.93,1.343,0,3,0Z" fill="none"/>
      <path id="Path_16" data-name="Path 16" d="M3,2a1.772,1.772,0,0,0-1,.264V6.736A1.772,1.772,0,0,0,3,7H37a1.772,1.772,0,0,0,1-.264V2.264A1.772,1.772,0,0,0,37,2H3M3,0H37c1.657,0,3,.93,3,2.077V6.923C40,8.07,38.657,9,37,9H3C1.343,9,0,8.07,0,6.923V2.077C0,.93,1.343,0,3,0Z" fill="#324bde"/>
    </g>
    <g id="Rectangle_43" data-name="Rectangle 43" transform="translate(6 25)" fill="none" stroke="#334bde" stroke-width="2">
      <rect width="6" height="15" rx="2" stroke="none"/>
      <rect x="1" y="1" width="4" height="13" rx="1" fill="none"/>
    </g>
    <g id="Rectangle_44" data-name="Rectangle 44" transform="translate(28 25)" fill="none" stroke="#334bde" stroke-width="2">
      <rect width="6" height="15" rx="2" stroke="none"/>
      <rect x="1" y="1" width="4" height="13" rx="1" fill="none"/>
    </g>
    <g id="Rectangle_45" data-name="Rectangle 45" transform="translate(12)" fill="none" stroke="#334bde" stroke-width="2">
      <rect width="6" height="10" rx="1" stroke="none"/>
      <rect x="1" y="1" width="4" height="8" fill="none"/>
    </g>
    <g id="Rectangle_46" data-name="Rectangle 46" transform="translate(24)" fill="none" stroke="#334bde" stroke-width="2">
      <rect width="6" height="10" rx="1" stroke="none"/>
      <rect x="1" y="1" width="4" height="8" fill="none"/>
    </g>
    <line id="Line_18" data-name="Line 18" y2="8" transform="translate(15 10)" fill="none" stroke="#334bde" stroke-width="2"/>
    <line id="Line_19" data-name="Line 19" y2="8" transform="translate(27 10)" fill="none" stroke="#334bde" stroke-width="2"/>
  </g>
</svg>
